<?xml version="1.0" encoding="utf-8"?>
<!-- Generator: Adobe Illustrator 18.1.0, SVG Export Plug-In . SVG Version: 6.00 Build 0)  -->
<svg version="1.1" id="Ebene_1" xmlns="http://www.w3.org/2000/svg" xmlns:xlink="http://www.w3.org/1999/xlink" x="0px" y="0px"
	 viewBox="0 0 162 62" enable-background="new 0 0 162 62" xml:space="preserve">
<g>
	<path fill="#FF4431" d="M3.8,7.4C4,6.4,5.4,5.9,6.9,6.2C8,6.4,9,7,9.7,7.8l1.9-1.9c-0.9-1-2.4-1.9-4.2-2.2c-3-0.5-6,0.6-6.4,3.3
		c-0.9,5.3,8.3,4.7,7.8,7.8c-0.2,1.1-1.4,1.5-2.8,1.3c-1.4-0.2-2.7-0.9-3.8-2.2L0,15.5c1.2,1.6,3,2.7,5.3,3.1
		c2.9,0.5,5.8-0.7,6.3-3.4C12.6,9.7,3.4,10,3.8,7.4"/>
	<path fill="#FF4431" d="M22.1,9.1c1.4,0.2,2.5,1.1,3.2,2.2l2.4-1.7c-1.3-1.9-3.1-2.9-5.1-3.3c-4.2-0.7-7.9,1.7-8.7,5.8
		c-0.4,2.1,0,4.1,1,5.6c1.3,2,3.4,3.2,5.5,3.6c2.6,0.5,5.2-0.2,7.1-1.9l-1.9-2.3c-1.2,1.1-2.7,1.8-4.6,1.4c-1.6-0.3-2.7-1.1-3.5-2.2
		c-0.7-1-1-2.3-0.7-3.6C17.3,10,19.7,8.7,22.1,9.1"/>
	<path fill="#FF4431" d="M40.9,13.7c0.5,0.7,0.8,1.6,0.8,3.2v7.8l3,0.5l0-8.1c0-2.3-0.5-3.6-1.1-4.7c-1.1-1.8-3-2.9-5-3.3
		c-1.9-0.3-3.6,0.2-4.9,1l0-9.6l-3-0.5l0,22.7l3,0.5l0-10.1c1.2-1.1,2.9-1.6,4.4-1.3C39.2,12.1,40.2,12.8,40.9,13.7"/>
	<path fill="#FF4431" d="M58.5,27.7l2.8,0.5l0-14.7l-3-0.5l0,10.1c-1.1,1.1-2.7,1.6-4.2,1.3c-1.2-0.2-2.2-0.8-2.9-1.8
		c-0.5-0.7-0.8-1.6-0.8-3.2v-7.8l-3-0.5l0,8.1c0,2.3,0.5,3.6,1.2,4.7c1.2,1.8,3,2.9,5,3.3c1.6,0.3,3.5-0.1,4.8-1.2L58.5,27.7z"/>
	<path fill="#FF4431" d="M57.5,9.5c1.1,0.2,2.1-0.5,2.3-1.6c0.2-1.1-0.5-2.1-1.6-2.3c-1.1-0.2-2.1,0.5-2.3,1.6
		C55.7,8.3,56.4,9.3,57.5,9.5"/>
	<path fill="#FF4431" d="M51.7,8.5C52.8,8.7,53.8,8,54,6.9c0.2-1.1-0.5-2.1-1.6-2.3c-1.1-0.2-2.1,0.5-2.3,1.6
		C50,7.3,50.7,8.3,51.7,8.5"/>
	<path fill="#FF4431" d="M81.1,19.2c1.8,0.3,3.2,1.8,3.3,3.7l-7.8-1.4C77.3,19.9,79,18.9,81.1,19.2 M80,31.8
		c2.6,0.5,4.8-0.1,6.5-1.4l-1.6-2.1c-1.2,0.8-2.7,1.3-4.5,1c-2.6-0.5-4.3-2.5-4.3-5.1L87.1,26c0.1-0.2,0.1-0.4,0.1-0.6
		c0.7-3.8-1.5-7.9-5.7-8.7c-3.9-0.7-7.4,1.7-8.1,5.7C72.6,27.1,75.3,31,80,31.8"/>
</g>
<polygon fill="#FF4431" points="86,10.5 82.8,9.9 79.9,14.2 82,14.5 "/>
<g>
	<path fill="#FF4431" d="M71.8,27.3c-0.4,0-1.2-0.1-1.6-0.1c-0.9-0.2-1.7-0.6-2.1-1.3c-0.3-0.5-0.5-1.3-0.5-2.7l0-16.7l-3-0.5
		l0,17.5c0,2,0.4,3.3,1.3,4.4c0.8,1,2.2,1.8,3.8,2.1c0.8,0.1,1.9,0.2,2.5,0.1L71.8,27.3z"/>
	<path fill="#FF4431" d="M45.9,57.7c-1.5,0.3-3.1-0.1-4.2-1l0-6.1c0.8-1.2,2.2-2.1,3.6-2.4c2.5-0.4,4.6,0.9,5,3.4
		C50.8,54.6,48.7,57.2,45.9,57.7 M50.1,46.3c-1.5-1-3.3-1.2-5-0.9c-1.3,0.2-2.6,0.9-3.5,1.7l0-8.8l-3,0.5l0,22.7l2.8-0.5l0-1.5
		c1,0.6,2.6,1.4,5.2,0.9c1.3-0.2,2.5-0.8,3.4-1.5c2.5-1.9,3.5-5.1,3-8C52.8,48.9,51.7,47.3,50.1,46.3"/>
	<path fill="#FF4431" d="M58.5,48.7c0.3-1.9,1.7-3.4,3.6-3.7c2-0.3,3.4,0.6,4,2.4L58.5,48.7z M61.8,42.4c-4.4,0.8-6.9,4.9-6.2,9.3
		c0.4,2.2,1.7,4,3.5,4.9c1.6,0.8,3.3,1,4.9,0.7c2.6-0.5,4-1.7,5.1-3.2l-2.1-1.6c-1,1.2-2.1,1.9-3.5,2.2c-2.6,0.5-4.5-1.1-5-3.5
		l10.8-1.9c0-0.3,0-0.9-0.1-1.3C68.6,44.2,65.7,41.7,61.8,42.4"/>
	<path fill="#FF4431" d="M78.5,39.4c-1.5,0.3-2.9,1.2-3.8,2.4l0-1.4l-2.8,0.5l0,14.7l3-0.5l0-9.6c0.6-1.4,2.2-2.9,4-3.3
		c0.3,0,0.6-0.1,0.9-0.1l0.3-2.8C79.5,39.3,79,39.3,78.5,39.4"/>
	<path fill="#FF4431" d="M89.8,49.9c-2.5,0.4-4.6-0.9-5-3.4c-0.5-3,1.6-5.6,4.4-6c1.5-0.3,3.1,0.1,4.2,1l0,6.1
		C92.6,48.7,91.2,49.7,89.8,49.9 M93.5,37.1l0,1.5c-1-0.6-2.6-1.4-5.2-0.9c-1.3,0.2-2.5,0.8-3.4,1.5c-2.5,1.9-3.5,5.1-3,8
		c0.7,3.8,4.2,6.3,7.9,5.6c1.6-0.3,2.9-1,3.8-1.9l0,1l2.8-0.5l0-14.7L93.5,37.1z"/>
	<path fill="#FF4431" d="M108.4,46.8c-1.2,0.2-2.3-0.2-2.5-1.5c0-0.3-0.1-1-0.1-1.7l0-5.9l4.6-0.8v-2.7l-4.6,0.8l0-4.2l-3,0.5l0,4.2
		l-3.7,0.7v2.7l3.7-0.7l0,5.5c0,0.5,0.1,1.8,0.1,2.1c0.5,3,3.4,4.1,5.9,3.7c0.7-0.1,1.5-0.4,2.1-0.7l-1-2.4
		C109.5,46.5,108.9,46.7,108.4,46.8"/>
	<path fill="#FF4431" d="M124.4,31.7l0,9.7c-0.9,1.7-2.4,2.8-4,3.1c-1.8,0.3-3.5-0.6-3.9-2.7c-0.1-0.6-0.2-1.7-0.2-2.6l0-6.2l-3,0.5
		l0,6.2c0,0.9,0.1,1.9,0.2,2.6c0.3,1.5,1,2.9,2.3,3.8c1.4,1.1,3.1,1.5,4.8,1.2c1.6-0.3,3-1.1,4-2.3l0,1.3l2.8-0.5l0-14.7L124.4,31.7
		z"/>
	<path fill="#FF4431" d="M144.6,34c-0.3-1.5-1.1-2.8-2.3-3.8c-1.4-1.1-3.2-1.5-4.8-1.2c-1.6,0.3-3.1,1.1-4,2.3l0-1.3l-2.8,0.5
		l0,14.7l3-0.5l0-9.7c0.9-1.7,2.5-2.8,4.1-3.1c1.8-0.3,3.6,0.6,4,2.7c0.1,0.7,0.2,1.7,0.2,2.6l0,6.2l3-0.5l0-6.2
		C144.8,35.7,144.7,34.6,144.6,34"/>
	<path fill="#FF4431" d="M155.5,38.3c-2.5,0.4-4.6-0.9-5-3.4c-0.5-3,1.6-5.6,4.4-6c1.5-0.3,3.1,0.1,4.2,1l0,6.1
		C158.3,37.1,156.8,38.1,155.5,38.3 M159.2,25.5l0,1.5c-1-0.6-2.6-1.4-5.2-0.9c-1.3,0.2-2.5,0.8-3.4,1.5c-2.5,1.9-3.5,5.1-3,8
		c0.7,3.8,4.2,6.3,7.9,5.6c1.4-0.2,2.7-0.9,3.6-1.8l0,1c0,2.9-1,5.1-4.1,5.7c-2.2,0.4-3.9-0.5-5.1-1.6l-1.9,2.4c1,1,3.7,2.7,7.5,2
		c2.8-0.5,4.8-2,5.7-4.2c0.6-1.3,0.8-2.9,0.8-4.6l0-15L159.2,25.5z"/>
</g>
</svg>
