<?xml version="1.0" encoding="utf-8"?>
<!-- Generator: Adobe Illustrator 18.1.0, SVG Export Plug-In . SVG Version: 6.00 Build 0)  -->
<svg version="1.1" id="Ebene_1" xmlns="http://www.w3.org/2000/svg" xmlns:xlink="http://www.w3.org/1999/xlink" x="0px" y="0px"
	 viewBox="0 0 800 300" enable-background="new 0 0 800 300" xml:space="preserve">
<rect fill="#FAF6F6" width="800" height="300"/>
<g>
	<path fill="#FF4431" d="M142.3,70.8c0.7-3.3,5.3-5,10.3-4c3.7,0.7,7,2.7,9.3,5.3l6.3-6.3c-3-3.3-8-6.3-14-7.3c-10-1.7-20,2-21.4,11
		c-3,17.7,27.7,15.7,26,26c-0.7,3.7-4.7,5-9.3,4.3c-4.7-0.7-9-3-12.7-7.3l-7.3,5.3c4,5.3,10,9,17.7,10.3c9.7,1.7,19.4-2.3,21-11.4
		C171.6,78.5,140.9,79.5,142.3,70.8"/>
	<path fill="#FF4431" d="M203.4,76.5c4.7,0.7,8.3,3.7,10.7,7.3l8-5.7c-4.3-6.3-10.3-9.7-17-11c-14-2.3-26.4,5.7-29,19.4
		c-1.3,7,0,13.7,3.3,18.7c4.3,6.7,11.4,10.7,18.4,12c8.7,1.7,17.4-0.7,23.7-6.3l-6.3-7.7c-4,3.7-9,6-15.4,4.7c-5.3-1-9-3.7-11.7-7.3
		c-2.3-3.3-3.3-7.7-2.3-12C187.3,79.5,195.4,75.2,203.4,76.5"/>
	<path fill="#FF4431" d="M266.1,91.9c1.7,2.3,2.7,5.3,2.7,10.7v26l10,1.7v-27c0-7.7-1.7-12-3.7-15.7c-3.7-6-10-9.7-16.7-11
		c-6.3-1-12,0.7-16.4,3.3v-32l-10-1.7V122l10,1.7V89.9c4-3.7,9.7-5.3,14.7-4.3C260.5,86.5,263.8,88.9,266.1,91.9"/>
	<path fill="#FF4431" d="M324.9,138.6l9.3,1.7V91.2l-10-1.7v33.7c-3.7,3.7-9,5.3-14,4.3c-4-0.7-7.3-2.7-9.7-6
		c-1.7-2.3-2.7-5.3-2.7-10.7v-26l-10-1.7v27c0,7.7,1.7,12,4,15.7c4,6,10,9.7,16.7,11c5.3,1,11.7-0.3,16-4L324.9,138.6z"/>
	<path fill="#FF4431" d="M321.5,77.8c3.7,0.7,7-1.7,7.7-5.3s-1.7-7-5.3-7.7c-3.7-0.7-7,1.7-7.7,5.3
		C315.5,73.8,317.9,77.2,321.5,77.8"/>
	<path fill="#FF4431" d="M302.2,74.5c3.7,0.7,7-1.7,7.7-5.3c0.7-3.7-1.7-7-5.3-7.7c-3.7-0.7-7,1.7-7.7,5.3
		C296.5,70.5,298.8,73.8,302.2,74.5"/>
	<path fill="#FF4431" d="M400.3,110.2c6,1,10.7,6,11,12.4l-26-4.7C387.6,112.6,393.3,109.2,400.3,110.2 M396.7,152.3
		c8.7,1.7,16-0.3,21.7-4.7l-5.3-7c-4,2.7-9,4.3-15,3.3c-8.7-1.7-14.4-8.3-14.4-17l36.7,6c0.3-0.7,0.3-1.3,0.3-2
		c2.3-12.7-5-26.4-19-29c-13-2.3-24.7,5.7-27,19C372,136.6,381,149.6,396.7,152.3"/>
</g>
<polygon fill="#FF4431" points="416.7,81.2 406,79.2 396.3,93.5 403.3,94.5 "/>
<g>
	<path fill="#FF4431" d="M369.3,137.3c-1.3,0-4-0.3-5.3-0.3c-3-0.7-5.7-2-7-4.3c-1-1.7-1.7-4.3-1.7-9V67.8l-10-1.7v58.4
		c0,6.7,1.3,11,4.3,14.7c2.7,3.3,7.3,6,12.7,7c2.7,0.3,6.3,0.7,8.3,0.3L369.3,137.3z"/>
	<path fill="#FF4431" d="M282.8,238.8c-5,1-10.3-0.3-14-3.3v-20.4c2.7-4,7.3-7,12-8c8.3-1.3,15.4,3,16.7,11.4
		C299.2,228.4,292.2,237.1,282.8,238.8 M296.8,200.7c-5-3.3-11-4-16.7-3c-4.3,0.7-8.7,3-11.7,5.7V174l-10,1.7v75.8l9.3-1.7v-5
		c3.3,2,8.7,4.7,17.4,3c4.3-0.7,8.3-2.7,11.4-5c8.3-6.3,11.7-17,10-26.7C305.9,209.4,302.2,204,296.8,200.7"/>
	<path fill="#FF4431" d="M324.9,208.7c1-6.3,5.7-11.4,12-12.4c6.7-1,11.4,2,13.4,8L324.9,208.7z M335.9,187.7
		c-14.7,2.7-23,16.4-20.7,31c1.3,7.3,5.7,13.4,11.7,16.4c5.3,2.7,11,3.3,16.4,2.3c8.7-1.7,13.4-5.7,17-10.7l-7-5.3
		c-3.3,4-7,6.3-11.7,7.3c-8.7,1.7-15-3.7-16.7-11.7l36.1-6.3c0-1,0-3-0.3-4.3C358.6,193.7,348.9,185.3,335.9,187.7"/>
	<path fill="#FF4431" d="M391.7,177.7c-5,1-9.7,4-12.7,8V181l-9.3,1.7v49.1l10-1.7v-32c2-4.7,7.3-9.7,13.4-11c1,0,2-0.3,3-0.3l1-9.3
		C395,177.3,393.3,177.3,391.7,177.7"/>
	<path fill="#FF4431" d="M429.4,212.7c-8.3,1.3-15.4-3-16.7-11.4c-1.7-10,5.3-18.7,14.7-20c5-1,10.3,0.3,14,3.3V205
		C438.7,208.7,434.1,212.1,429.4,212.7 M441.7,170v5c-3.3-2-8.7-4.7-17.4-3c-4.3,0.7-8.3,2.7-11.4,5c-8.3,6.3-11.7,17-10,26.7
		c2.3,12.7,14,21,26.4,18.7c5.3-1,9.7-3.3,12.7-6.3v3.3l9.3-1.7v-49.1L441.7,170z"/>
	<path fill="#FF4431" d="M491.5,202.4c-4,0.7-7.7-0.7-8.3-5c0-1-0.3-3.3-0.3-5.7V172l15.4-2.7v-9l-15.4,2.7v-14l-10,1.7v14
		l-12.4,2.3v9l12.4-2.3V192c0,1.7,0.3,6,0.3,7c1.7,10,11.4,13.7,19.7,12.4c2.3-0.3,5-1.3,7-2.3l-3.3-8
		C495.1,201.4,493.1,202,491.5,202.4"/>
	<path fill="#FF4431" d="M544.9,152v32.4c-3,5.7-8,9.3-13.4,10.3c-6,1-11.7-2-13-9c-0.3-2-0.7-5.7-0.7-8.7v-20.7l-10,1.7v20.7
		c0,3,0.3,6.3,0.7,8.7c1,5,3.3,9.7,7.7,12.7c4.7,3.7,10.3,5,16,4c5.3-1,10-3.7,13.4-7.7v4.3l9.3-1.7v-49L544.9,152z"/>
	<path fill="#FF4431" d="M612.3,159.6c-1-5-3.7-9.3-7.7-12.7c-4.7-3.7-10.7-5-16-4s-10.3,3.7-13.4,7.7v-4.3l-9.3,1.7v49l10-1.7V163
		c3-5.7,8.3-9.3,13.7-10.3c6-1,12,2,13.4,9c0.3,2.3,0.7,5.7,0.7,8.7V191l10-1.7v-20.7C613,165.3,612.7,161.6,612.3,159.6"/>
	<path fill="#FF4431" d="M648.7,174c-8.3,1.3-15.4-3-16.7-11.4c-1.7-10,5.3-18.7,14.7-20c5-1,10.3,0.3,14,3.3v20.4
		C658.1,170,653.1,173.3,648.7,174 M661.1,131.3v5c-3.3-2-8.7-4.7-17.4-3c-4.3,0.7-8.3,2.7-11.4,5c-8.3,6.3-11.7,17-10,26.7
		c2.3,12.7,14,21,26.4,18.7c4.7-0.7,9-3,12-6v3.3c0,9.7-3.3,17-13.7,19c-7.3,1.3-13-1.7-17-5.3l-6.3,8c3.3,3.3,12.4,9,25,6.7
		c9.3-1.7,16-6.7,19-14c2-4.3,2.7-9.7,2.7-15.4v-50.1L661.1,131.3z"/>
</g>
</svg>
