<?xml version="1.0" encoding="utf-8"?>
<!-- Generator: Adobe Illustrator 18.1.0, SVG Export Plug-In . SVG Version: 6.00 Build 0)  -->
<svg version="1.1" id="Ebene_1" xmlns="http://www.w3.org/2000/svg" xmlns:xlink="http://www.w3.org/1999/xlink" x="0px" y="0px"
	 viewBox="0 0 30 30" enable-background="new 0 0 30 30" xml:space="preserve">
<g>
	<defs>
		<path id="SVGID_3_" d="M28.4,30h-7.7V18.4h3.9l0.6-4.5h-4.5V11c0-1.3,0.3-2.2,2.2-2.2h2.4V4.7c-0.4-0.1-1.8-0.2-3.5-0.2
			c-3.4,0-5.8,2.1-5.8,6v3.4h-3.9v4.5H16V30H1.6C0.7,30,0,29.3,0,28.4V1.6C0,0.7,0.7,0,1.6,0h26.7C29.3,0,30,0.7,30,1.6v26.7
			C30.1,29.3,29.3,30,28.4,30z"/>
	</defs>
	<use xlink:href="#SVGID_3_"  overflow="visible"/>
	<clipPath id="SVGID_2_">
		<use xlink:href="#SVGID_3_"  overflow="visible"/>
	</clipPath>
	<rect x="-7.5" y="-7.5" clip-path="url(#SVGID_2_)" width="45" height="45"/>
</g>
</svg>
